<svg width="23" height="34" viewBox="0 0 23 34" fill="none" xmlns="http://www.w3.org/2000/svg">
<mask id="path-1-outside-1_0_1" maskUnits="userSpaceOnUse" x="-0.634468" y="-0.600006" width="24" height="35" fill="black">
<rect fill="white" x="-0.634468" y="-0.600006" width="24" height="35"/>
<path d="M13.4855 27.04C12.7122 27.6533 11.7122 28.2267 10.4855 28.76C9.25887 29.2667 8.29887 29.52 7.60553 29.52C6.77887 29.52 5.81887 29.0533 4.72553 28.12C3.65887 27.16 2.7522 26.0267 2.00553 24.72C1.28553 23.3867 0.952199 22.2133 1.00553 21.2C1.1922 18.3467 1.84553 15.3467 2.96553 12.2C4.08553 9.05333 5.6322 6.39999 7.60553 4.23999C9.57887 2.07999 11.8455 0.999992 14.4055 0.999992C15.7655 0.999992 16.9789 1.35999 18.0455 2.07999C19.1389 2.77333 19.9789 3.69333 20.5655 4.83999C21.1789 5.95999 21.4855 7.13333 21.4855 8.35999C21.4855 9.26666 21.1655 9.98666 20.5255 10.52C19.8855 11.0533 19.0722 11.32 18.0855 11.32C17.2589 11.32 16.3655 11.12 15.4055 10.72C15.4589 10.08 15.4855 9.65333 15.4855 9.43999C15.4855 8.42666 15.3389 7.66666 15.0455 7.15999C14.7789 6.65333 14.3922 6.39999 13.8855 6.39999C13.0322 6.39999 12.0589 7.33333 10.9655 9.19999C9.8722 11.04 8.9122 13.3333 8.08553 16.08C7.28553 18.8267 6.8322 21.4533 6.72553 23.96C9.33887 23.9333 12.2855 23.2933 15.5655 22.04L15.7255 20.2C15.1922 20.2533 14.7522 20.28 14.4055 20.28C13.5789 20.28 12.8589 20.2 12.2455 20.04C11.6322 19.88 11.2722 19.64 11.1655 19.32C11.0589 19.08 11.0055 18.72 11.0055 18.24C11.0055 17.6 11.0855 16.9333 11.2455 16.24C11.4322 15.5467 11.6322 15.08 11.8455 14.84C12.2189 14.4133 12.6722 14.1333 13.2055 14C13.7655 13.8667 14.5789 13.8 15.6455 13.8C17.6722 13.8 19.0855 14.2533 19.8855 15.16C20.7122 16.04 21.1255 17.3467 21.1255 19.08C21.1255 20.3867 20.8855 22.16 20.4055 24.4C19.9255 26.6133 19.3389 28.56 18.6455 30.24C17.9522 31.92 17.2855 32.76 16.6455 32.76C16.1122 32.76 15.5122 32.64 14.8455 32.4C14.2055 32.16 13.6589 31.8533 13.2055 31.48C12.7522 31.1333 12.5255 30.8133 12.5255 30.52C12.5522 30.0933 12.6989 29.5867 12.9655 29C13.2589 28.4133 13.5655 27.8933 13.8855 27.44L13.4855 27.04Z"/>
</mask>
<path d="M13.4855 27.04C12.7122 27.6533 11.7122 28.2267 10.4855 28.76C9.25887 29.2667 8.29887 29.52 7.60553 29.52C6.77887 29.52 5.81887 29.0533 4.72553 28.12C3.65887 27.16 2.7522 26.0267 2.00553 24.72C1.28553 23.3867 0.952199 22.2133 1.00553 21.2C1.1922 18.3467 1.84553 15.3467 2.96553 12.2C4.08553 9.05333 5.6322 6.39999 7.60553 4.23999C9.57887 2.07999 11.8455 0.999992 14.4055 0.999992C15.7655 0.999992 16.9789 1.35999 18.0455 2.07999C19.1389 2.77333 19.9789 3.69333 20.5655 4.83999C21.1789 5.95999 21.4855 7.13333 21.4855 8.35999C21.4855 9.26666 21.1655 9.98666 20.5255 10.52C19.8855 11.0533 19.0722 11.32 18.0855 11.32C17.2589 11.32 16.3655 11.12 15.4055 10.72C15.4589 10.08 15.4855 9.65333 15.4855 9.43999C15.4855 8.42666 15.3389 7.66666 15.0455 7.15999C14.7789 6.65333 14.3922 6.39999 13.8855 6.39999C13.0322 6.39999 12.0589 7.33333 10.9655 9.19999C9.8722 11.04 8.9122 13.3333 8.08553 16.08C7.28553 18.8267 6.8322 21.4533 6.72553 23.96C9.33887 23.9333 12.2855 23.2933 15.5655 22.04L15.7255 20.2C15.1922 20.2533 14.7522 20.28 14.4055 20.28C13.5789 20.28 12.8589 20.2 12.2455 20.04C11.6322 19.88 11.2722 19.64 11.1655 19.32C11.0589 19.08 11.0055 18.72 11.0055 18.24C11.0055 17.6 11.0855 16.9333 11.2455 16.24C11.4322 15.5467 11.6322 15.08 11.8455 14.84C12.2189 14.4133 12.6722 14.1333 13.2055 14C13.7655 13.8667 14.5789 13.8 15.6455 13.8C17.6722 13.8 19.0855 14.2533 19.8855 15.16C20.7122 16.04 21.1255 17.3467 21.1255 19.08C21.1255 20.3867 20.8855 22.16 20.4055 24.4C19.9255 26.6133 19.3389 28.56 18.6455 30.24C17.9522 31.92 17.2855 32.76 16.6455 32.76C16.1122 32.76 15.5122 32.64 14.8455 32.4C14.2055 32.16 13.6589 31.8533 13.2055 31.48C12.7522 31.1333 12.5255 30.8133 12.5255 30.52C12.5522 30.0933 12.6989 29.5867 12.9655 29C13.2589 28.4133 13.5655 27.8933 13.8855 27.44L13.4855 27.04Z" fill="url(#paint0_linear_0_1)"/>
<path d="M13.4855 27.04L14.1926 26.3329L13.5624 25.7027L12.8641 26.2565L13.4855 27.04ZM10.4855 28.76L10.8673 29.6843L10.8758 29.6807L10.8843 29.6771L10.4855 28.76ZM4.72553 28.12L4.05657 28.8633L4.06631 28.8721L4.07627 28.8806L4.72553 28.12ZM2.00553 24.72L1.12563 25.1951L1.13133 25.2057L1.13729 25.2161L2.00553 24.72ZM1.00553 21.2L0.00758401 21.1347L0.00691411 21.1474L1.00553 21.2ZM2.96553 12.2L3.90763 12.5353V12.5353L2.96553 12.2ZM7.60553 4.23999L8.34382 4.91448H8.34382L7.60553 4.23999ZM18.0455 2.07999L17.4861 2.90884L17.4979 2.91684L17.51 2.9245L18.0455 2.07999ZM20.5655 4.83999L19.6753 5.29547L19.6817 5.30798L19.6884 5.32031L20.5655 4.83999ZM20.5255 10.52L19.8853 9.75177V9.75177L20.5255 10.52ZM15.4055 10.72L14.409 10.6369L14.3485 11.3629L15.0209 11.6431L15.4055 10.72ZM15.0455 7.15999L14.1606 7.62574L14.17 7.64358L14.1801 7.66103L15.0455 7.15999ZM10.9655 9.19999L11.8252 9.71083L11.8284 9.7054L10.9655 9.19999ZM8.08553 16.08L7.12792 15.7918L7.12543 15.8004L8.08553 16.08ZM6.72553 23.96L5.72644 23.9175L5.68162 24.9707L6.73574 24.9599L6.72553 23.96ZM15.5655 22.04L15.9225 22.9741L16.5075 22.7506L16.5618 22.1266L15.5655 22.04ZM15.7255 20.2L16.7218 20.2866L16.8263 19.0849L15.626 19.205L15.7255 20.2ZM11.1655 19.32L12.1142 19.0038L12.0989 18.958L12.0793 18.9139L11.1655 19.32ZM11.2455 16.24L10.2799 15.98L10.2752 15.9975L10.2711 16.0151L11.2455 16.24ZM11.8455 14.84L12.593 15.5044L12.5981 15.4985L11.8455 14.84ZM13.2055 14L12.9739 13.0271L12.963 13.0299L13.2055 14ZM19.8855 15.16L19.1357 15.8216L19.146 15.8333L19.1567 15.8447L19.8855 15.16ZM20.4055 24.4L21.3828 24.6119L21.3833 24.6095L20.4055 24.4ZM14.8455 32.4L14.4944 33.3364L14.5068 33.3409L14.8455 32.4ZM13.2055 31.48L13.8412 30.7081L13.8273 30.6966L13.813 30.6856L13.2055 31.48ZM12.5255 30.52L11.5275 30.4576L11.5255 30.4888V30.52H12.5255ZM12.9655 29L12.0711 28.5528L12.0628 28.5693L12.0552 28.5862L12.9655 29ZM13.8855 27.44L14.7025 28.0167L15.1883 27.3285L14.5926 26.7329L13.8855 27.44ZM13.4855 27.04L12.8641 26.2565C12.1781 26.8006 11.2599 27.3329 10.0868 27.8429L10.4855 28.76L10.8843 29.6771C12.1645 29.1205 13.2463 28.5061 14.1069 27.8235L13.4855 27.04ZM10.4855 28.76L10.1038 27.8357C8.9079 28.3297 8.09667 28.52 7.60553 28.52V29.52V30.52C8.50106 30.52 9.60983 30.2036 10.8673 29.6843L10.4855 28.76ZM7.60553 29.52V28.52C7.13865 28.52 6.40851 28.2419 5.37479 27.3594L4.72553 28.12L4.07627 28.8806C5.22922 29.8648 6.41908 30.52 7.60553 30.52V29.52ZM4.72553 28.12L5.3945 27.3767C4.41079 26.4914 3.57019 25.4426 2.87378 24.2239L2.00553 24.72L1.13729 25.2161C1.9342 26.6107 2.90695 27.8286 4.05657 28.8633L4.72553 28.12ZM2.00553 24.72L2.88544 24.2448C2.2126 22.9989 1.96411 22.0133 2.00415 21.2526L1.00553 21.2L0.00691411 21.1474C-0.0597156 22.4134 0.35846 23.7745 1.12563 25.1951L2.00553 24.72ZM1.00553 21.2L2.0034 21.2653C2.18313 18.518 2.81354 15.6092 3.90763 12.5353L2.96553 12.2L2.02343 11.8647C0.877521 15.0841 0.201272 18.1753 0.00766504 21.1347L1.00553 21.2ZM2.96553 12.2L3.90763 12.5353C4.98925 9.49648 6.47218 6.96317 8.34382 4.91448L7.60553 4.23999L6.86724 3.56551C4.79222 5.83682 3.18181 8.61017 2.02343 11.8647L2.96553 12.2ZM7.60553 4.23999L8.34382 4.91448C10.1575 2.9292 12.1678 1.99999 14.4055 1.99999V0.999992V-7.62939e-06C11.5233 -7.62939e-06 9.0002 1.23079 6.86724 3.56551L7.60553 4.23999ZM14.4055 0.999992V1.99999C15.5781 1.99999 16.5943 2.30689 17.4861 2.90884L18.0455 2.07999L18.605 1.25114C17.3635 0.413097 15.953 -7.62939e-06 14.4055 -7.62939e-06V0.999992ZM18.0455 2.07999L17.51 2.9245C18.4533 3.52268 19.1704 4.30869 19.6753 5.29547L20.5655 4.83999L21.4558 4.38452C20.7873 3.07796 19.8245 2.02397 18.5811 1.23549L18.0455 2.07999ZM20.5655 4.83999L19.6884 5.32031C20.2246 6.29932 20.4855 7.30821 20.4855 8.35999H21.4855H22.4855C22.4855 6.95844 22.1332 5.62066 21.4426 4.35968L20.5655 4.83999ZM21.4855 8.35999H20.4855C20.4855 8.99965 20.2754 9.4267 19.8853 9.75177L20.5255 10.52L21.1657 11.2882C22.0556 10.5466 22.4855 9.53367 22.4855 8.35999H21.4855ZM20.5255 10.52L19.8853 9.75177C19.4569 10.1088 18.8834 10.32 18.0855 10.32V11.32V12.32C19.261 12.32 20.3141 11.9979 21.1657 11.2882L20.5255 10.52ZM18.0855 11.32V10.32C17.4202 10.32 16.6586 10.1588 15.7901 9.79692L15.4055 10.72L15.0209 11.6431C16.0725 12.0812 17.0975 12.32 18.0855 12.32V11.32ZM15.4055 10.72L16.4021 10.803C16.4548 10.1701 16.4855 9.70189 16.4855 9.43999H15.4855H14.4855C14.4855 9.60476 14.4629 9.9899 14.409 10.6369L15.4055 10.72ZM15.4855 9.43999H16.4855C16.4855 8.36293 16.3354 7.39211 15.911 6.65896L15.0455 7.15999L14.1801 7.66103C14.3423 7.94122 14.4855 8.49039 14.4855 9.43999H15.4855ZM15.0455 7.15999L15.9305 6.69425C15.7367 6.32614 15.4689 5.99288 15.1036 5.75353C14.7318 5.50998 14.3141 5.39999 13.8855 5.39999V6.39999V7.39999C13.9636 7.39999 13.9926 7.41668 14.0075 7.42645C14.0288 7.44044 14.0877 7.48717 14.1606 7.62574L15.0455 7.15999ZM13.8855 6.39999V5.39999C13.086 5.39999 12.3924 5.83261 11.8234 6.37821C11.2424 6.93535 10.6715 7.72342 10.1026 8.69459L10.9655 9.19999L11.8284 9.7054C12.3529 8.8099 12.8153 8.19797 13.2077 7.82178C13.612 7.43405 13.8317 7.39999 13.8855 7.39999V6.39999ZM10.9655 9.19999L10.1058 8.68917C8.95962 10.6182 7.97069 12.9918 7.12796 15.7918L8.08553 16.08L9.0431 16.3682C9.85371 13.6749 10.7848 11.4618 11.8252 9.71082L10.9655 9.19999ZM8.08553 16.08L7.12543 15.8004C6.30602 18.6136 5.83696 21.3202 5.72644 23.9175L6.72553 23.96L7.72463 24.0025C7.82744 21.5865 8.26504 19.0397 9.04564 16.3596L8.08553 16.08ZM6.72553 23.96L6.73574 24.9599C9.50061 24.9317 12.5674 24.2561 15.9225 22.9741L15.5655 22.04L15.2086 21.1059C12.0037 22.3305 9.17712 22.9349 6.71533 22.96L6.72553 23.96ZM15.5655 22.04L16.5618 22.1266L16.7218 20.2866L15.7255 20.2L14.7293 20.1134L14.5693 21.9534L15.5655 22.04ZM15.7255 20.2L15.626 19.205C15.11 19.2566 14.7062 19.28 14.4055 19.28V20.28V21.28C14.7982 21.28 15.2744 21.2501 15.825 21.195L15.7255 20.2ZM14.4055 20.28V19.28C13.6398 19.28 13.0083 19.2055 12.498 19.0724L12.2455 20.04L11.9931 21.0076C12.7094 21.1945 13.518 21.28 14.4055 21.28V20.28ZM12.2455 20.04L12.498 19.0724C12.2535 19.0086 12.1254 18.9448 12.0702 18.9079C12.0224 18.876 12.0795 18.8995 12.1142 19.0038L11.1655 19.32L10.2168 19.6362C10.497 20.4766 11.3286 20.8343 11.9931 21.0076L12.2455 20.04ZM11.1655 19.32L12.0793 18.9139C12.0588 18.8676 12.0055 18.6769 12.0055 18.24H11.0055H10.0055C10.0055 18.7631 10.0589 19.2923 10.2517 19.7261L11.1655 19.32ZM11.0055 18.24H12.0055C12.0055 17.6836 12.0751 17.0925 12.2199 16.4649L11.2455 16.24L10.2711 16.0151C10.096 16.7741 10.0055 17.5164 10.0055 18.24H11.0055ZM11.2455 16.24L12.2111 16.5C12.2968 16.1819 12.3792 15.9401 12.4547 15.7639C12.492 15.6767 12.5248 15.6126 12.5512 15.5674C12.5782 15.5212 12.5934 15.5039 12.5929 15.5044L11.8455 14.84L11.0981 14.1756C10.7155 14.6061 10.4689 15.2782 10.2799 15.98L11.2455 16.24ZM11.8455 14.84L12.5981 15.4985C12.8416 15.2202 13.119 15.0524 13.4481 14.9701L13.2055 14L12.963 13.0299C12.2254 13.2143 11.5961 13.6065 11.093 14.1815L11.8455 14.84ZM13.2055 14L13.4372 14.9728C13.8823 14.8668 14.6027 14.8 15.6455 14.8V13.8V12.8C14.555 12.8 13.6488 12.8665 12.9739 13.0272L13.2055 14ZM15.6455 13.8V14.8C17.5719 14.8 18.6214 15.2387 19.1357 15.8216L19.8855 15.16L20.6354 14.4984C19.5497 13.268 17.7725 12.8 15.6455 12.8V13.8ZM19.8855 15.16L19.1567 15.8447C19.746 16.472 20.1255 17.4907 20.1255 19.08H21.1255H22.1255C22.1255 17.2026 21.6784 15.608 20.6144 14.4753L19.8855 15.16ZM21.1255 19.08H20.1255C20.1255 20.2827 19.9022 21.9762 19.4277 24.1905L20.4055 24.4L21.3833 24.6095C21.8688 22.3438 22.1255 20.4906 22.1255 19.08H21.1255ZM20.4055 24.4L19.4283 24.1881C18.9579 26.3569 18.3871 28.2448 17.7212 29.8585L18.6455 30.24L19.5699 30.6215C20.2906 28.8752 20.8932 26.8698 21.3828 24.6119L20.4055 24.4ZM18.6455 30.24L17.7212 29.8585C17.3891 30.6632 17.0912 31.1947 16.8422 31.5083C16.5731 31.8474 16.5037 31.76 16.6455 31.76V32.76V33.76C17.4274 33.76 18.0113 33.2526 18.4088 32.7517C18.8266 32.2253 19.2087 31.4968 19.5699 30.6215L18.6455 30.24ZM16.6455 32.76V31.76C16.2586 31.76 15.7758 31.6721 15.1843 31.4591L14.8455 32.4L14.5068 33.3409C15.2486 33.6079 15.9658 33.76 16.6455 33.76V32.76ZM14.8455 32.4L15.1967 31.4637C14.6434 31.2562 14.1968 31.0008 13.8412 30.7081L13.2055 31.48L12.5698 32.2519C13.121 32.7058 13.7677 33.0638 14.4944 33.3363L14.8455 32.4ZM13.2055 31.48L13.813 30.6856C13.6334 30.5483 13.5467 30.4516 13.5116 30.402C13.4782 30.3549 13.5255 30.4001 13.5255 30.52H12.5255H11.5255C11.5255 31.3206 12.1119 31.9026 12.5981 32.2744L13.2055 31.48ZM12.5255 30.52L13.5236 30.5824C13.5398 30.3225 13.6366 29.9403 13.8759 29.4138L12.9655 29L12.0552 28.5862C11.7611 29.2331 11.5646 29.8642 11.5275 30.4576L12.5255 30.52ZM12.9655 29L13.86 29.4472C14.1347 28.8977 14.4162 28.4223 14.7025 28.0167L13.8855 27.44L13.0686 26.8633C12.7149 27.3644 12.383 27.9289 12.0711 28.5528L12.9655 29ZM13.8855 27.44L14.5926 26.7329L14.1926 26.3329L13.4855 27.04L12.7784 27.7471L13.1784 28.1471L13.8855 27.44Z" fill="white" mask="url(#path-1-outside-1_0_1)"/>
<defs>
<linearGradient id="paint0_linear_0_1" x1="11.8655" y1="-4.60001" x2="11.8655" y2="43.4" gradientUnits="userSpaceOnUse">
<stop stop-color="white"/>
<stop offset="0.480769" stop-color="#A60DD8"/>
<stop offset="1" stop-color="#9E0FCE"/>
</linearGradient>
</defs>
</svg>
