<svg width="39" height="40" viewBox="0 0 39 40" fill="none" xmlns="http://www.w3.org/2000/svg">
<mask id="path-1-outside-1_0_1" maskUnits="userSpaceOnUse" x="-0.727997" y="-0.727997" width="40" height="40" fill="black">
<rect fill="white" x="-0.727997" y="-0.727997" width="40" height="40"/>
<path d="M20.24 23.792V18.32H36.8C36.896 20.88 36.592 23.296 35.888 25.568C35.216 27.84 34.144 29.856 32.672 31.616C31.232 33.344 29.44 34.704 27.296 35.696C25.152 36.688 22.704 37.184 19.952 37.184C17.36 37.184 14.96 36.752 12.752 35.888C10.576 35.024 8.672 33.808 7.04 32.24C5.44 30.672 4.192 28.8 3.296 26.624C2.432 24.448 2 22.064 2 19.472C2 16.88 2.448 14.512 3.344 12.368C4.272 10.192 5.552 8.336 7.184 6.8C8.816 5.264 10.736 4.08 12.944 3.248C15.152 2.416 17.552 2 20.144 2C22.448 2 24.512 2.32 26.336 2.96C28.192 3.6 29.824 4.496 31.232 5.648C32.672 6.768 33.904 8.112 34.928 9.68L29.072 13.088C28.24 11.616 27.072 10.432 25.568 9.536C24.096 8.608 22.288 8.144 20.144 8.144C18.128 8.144 16.288 8.608 14.624 9.536C12.96 10.432 11.632 11.728 10.64 13.424C9.68 15.12 9.2 17.136 9.2 19.472C9.2 21.776 9.68 23.808 10.64 25.568C11.6 27.296 12.896 28.64 14.528 29.6C16.192 30.56 18.064 31.04 20.144 31.04C21.52 31.04 22.752 30.864 23.84 30.512C24.928 30.128 25.856 29.6 26.624 28.928C27.424 28.256 28.096 27.488 28.64 26.624C29.184 25.76 29.6 24.816 29.888 23.792H20.24Z"/>
</mask>
<path d="M20.24 23.792V18.32H36.8C36.896 20.88 36.592 23.296 35.888 25.568C35.216 27.84 34.144 29.856 32.672 31.616C31.232 33.344 29.44 34.704 27.296 35.696C25.152 36.688 22.704 37.184 19.952 37.184C17.36 37.184 14.96 36.752 12.752 35.888C10.576 35.024 8.672 33.808 7.04 32.24C5.44 30.672 4.192 28.8 3.296 26.624C2.432 24.448 2 22.064 2 19.472C2 16.88 2.448 14.512 3.344 12.368C4.272 10.192 5.552 8.336 7.184 6.8C8.816 5.264 10.736 4.08 12.944 3.248C15.152 2.416 17.552 2 20.144 2C22.448 2 24.512 2.32 26.336 2.96C28.192 3.6 29.824 4.496 31.232 5.648C32.672 6.768 33.904 8.112 34.928 9.68L29.072 13.088C28.24 11.616 27.072 10.432 25.568 9.536C24.096 8.608 22.288 8.144 20.144 8.144C18.128 8.144 16.288 8.608 14.624 9.536C12.96 10.432 11.632 11.728 10.64 13.424C9.68 15.12 9.2 17.136 9.2 19.472C9.2 21.776 9.68 23.808 10.64 25.568C11.6 27.296 12.896 28.64 14.528 29.6C16.192 30.56 18.064 31.04 20.144 31.04C21.52 31.04 22.752 30.864 23.84 30.512C24.928 30.128 25.856 29.6 26.624 28.928C27.424 28.256 28.096 27.488 28.64 26.624C29.184 25.76 29.6 24.816 29.888 23.792H20.24Z" fill="#8413AA"/>
<path d="M20.24 23.792H18.24V25.792H20.24V23.792ZM20.24 18.32V16.32H18.24V18.32H20.24ZM36.8 18.32L38.7986 18.2451L38.7264 16.32H36.8V18.32ZM35.888 25.568L33.9776 24.9761L33.9738 24.9884L33.9701 25.0007L35.888 25.568ZM32.672 31.616L31.1378 30.3329L31.1356 30.3356L32.672 31.616ZM27.296 35.696L26.4562 33.8809V33.8809L27.296 35.696ZM12.752 35.888L12.0139 37.7469L12.0232 37.7505L12.752 35.888ZM7.04 32.24L5.64015 33.6684L5.64721 33.6754L5.65435 33.6822L7.04 32.24ZM3.296 26.624L1.43717 27.3621L1.44183 27.3738L1.44665 27.3855L3.296 26.624ZM3.344 12.368L1.50432 11.5834L1.50147 11.5901L1.49867 11.5968L3.344 12.368ZM7.184 6.8L8.55473 8.2564L8.55473 8.2564L7.184 6.8ZM12.944 3.248L13.6492 5.11954H13.6492L12.944 3.248ZM26.336 2.96L25.6738 4.84723L25.684 4.85075L26.336 2.96ZM31.232 5.648L29.9655 7.19592L29.9846 7.21155L30.0041 7.22671L31.232 5.648ZM34.928 9.68L35.934 11.4086L37.7539 10.3495L36.6025 8.58642L34.928 9.68ZM29.072 13.088L27.3309 14.0721L28.3275 15.8353L30.078 14.8166L29.072 13.088ZM25.568 9.536L24.5014 11.2279L24.5227 11.2413L24.5444 11.2542L25.568 9.536ZM14.624 9.536L15.5722 11.2969L15.5852 11.2899L15.5981 11.2827L14.624 9.536ZM10.64 13.424L8.91363 12.4142L8.90647 12.4265L8.89949 12.4388L10.64 13.424ZM10.64 25.568L8.88421 26.5257L8.88792 26.5325L8.89169 26.5393L10.64 25.568ZM14.528 29.6L13.514 31.3239L13.5212 31.3282L13.5286 31.3324L14.528 29.6ZM23.84 30.512L24.4556 32.4149L24.4808 32.4068L24.5056 32.398L23.84 30.512ZM26.624 28.928L25.3376 27.3966L25.3222 27.4096L25.307 27.4229L26.624 28.928ZM28.64 26.624L30.3325 27.6896V27.6896L28.64 26.624ZM29.888 23.792L31.8133 24.3335L32.5281 21.792H29.888V23.792ZM20.24 23.792H22.24V18.32H20.24H18.24V23.792H20.24ZM20.24 18.32V20.32H36.8V18.32V16.32H20.24V18.32ZM36.8 18.32L34.8014 18.395C34.8896 20.7467 34.6098 22.9358 33.9776 24.9761L35.888 25.568L37.7984 26.16C38.5742 23.6562 38.9024 21.0133 38.7986 18.2451L36.8 18.32ZM35.888 25.568L33.9701 25.0007C33.3731 27.0192 32.4286 28.7897 31.1378 30.3329L32.672 31.616L34.2062 32.8991C35.8594 30.9224 37.0589 28.6608 37.8059 26.1353L35.888 25.568ZM32.672 31.616L31.1356 30.3356C29.8948 31.8245 28.3451 33.0069 26.4562 33.8809L27.296 35.696L28.1358 37.5111C30.5349 36.4011 32.5692 34.8635 34.2084 32.8964L32.672 31.616ZM27.296 35.696L26.4562 33.8809C24.6154 34.7326 22.4615 35.184 19.952 35.184V37.184V39.184C22.9465 39.184 25.6886 38.6434 28.1358 37.5111L27.296 35.696ZM19.952 37.184V35.184C17.5861 35.184 15.4358 34.7905 13.4808 34.0255L12.752 35.888L12.0232 37.7505C14.4842 38.7135 17.1339 39.184 19.952 39.184V37.184ZM12.752 35.888L13.4901 34.0292C11.5464 33.2574 9.86436 32.1801 8.42566 30.7978L7.04 32.24L5.65435 33.6822C7.47965 35.4359 9.6056 36.7906 12.0139 37.7468L12.752 35.888ZM7.04 32.24L8.43986 30.8116C7.04301 29.4427 5.94353 27.8009 5.14536 25.8625L3.296 26.624L1.44665 27.3855C2.44048 29.7991 3.837 31.9013 5.64015 33.6684L7.04 32.24ZM3.296 26.624L5.15484 25.8859C4.39359 23.9687 4 21.8383 4 19.472H2H3.27826e-06C3.27826e-06 22.2897 0.470412 24.9273 1.43717 27.3621L3.296 26.624ZM2 19.472H4C4 17.1142 4.4066 15.0122 5.18934 13.1392L3.344 12.368L1.49867 11.5968C0.489408 14.0118 3.27826e-06 16.6458 3.27826e-06 19.472H2ZM3.344 12.368L5.18369 13.1526C6.00953 11.2161 7.1348 9.5928 8.55473 8.2564L7.184 6.8L5.81327 5.3436C3.9692 7.0792 2.53447 9.16789 1.50432 11.5834L3.344 12.368ZM7.184 6.8L8.55473 8.2564C9.98441 6.91082 11.675 5.86345 13.6492 5.11954L12.944 3.248L12.2388 1.37646C9.79699 2.29656 7.6476 3.61718 5.81327 5.3436L7.184 6.8ZM12.944 3.248L13.6492 5.11954C15.6106 4.38046 17.7692 4 20.144 4V2V0C17.3348 0 14.6934 0.451538 12.2388 1.37646L12.944 3.248ZM20.144 2V4C22.2646 4 24.099 4.29464 25.6738 4.8472L26.336 2.96L26.9982 1.0728C24.925 0.345367 22.6314 0 20.144 0V2ZM26.336 2.96L25.684 4.85075C27.3343 5.41981 28.7545 6.20506 29.9655 7.19592L31.232 5.648L32.4985 4.10009C30.8935 2.78694 29.0497 1.7802 26.988 1.06926L26.336 2.96ZM31.232 5.648L30.0041 7.22671C31.2648 8.20721 32.3472 9.38589 33.2535 10.7736L34.928 9.68L36.6025 8.58642C35.4608 6.83811 34.0792 5.32879 32.4599 4.0693L31.232 5.648ZM34.928 9.68L33.922 7.95142L28.066 11.3594L29.072 13.088L30.078 14.8166L35.934 11.4086L34.928 9.68ZM29.072 13.088L30.8131 12.1039C29.8037 10.3179 28.3835 8.88533 26.5916 7.8178L25.568 9.536L24.5444 11.2542C25.7605 11.9787 26.6763 12.9141 27.3309 14.0721L29.072 13.088ZM25.568 9.536L26.6346 7.84415C24.7764 6.67269 22.5778 6.144 20.144 6.144V8.144V10.144C21.9982 10.144 23.4156 10.5433 24.5014 11.2279L25.568 9.536ZM20.144 8.144V6.144C17.8075 6.144 15.6291 6.68547 13.6499 7.78927L14.624 9.536L15.5981 11.2827C16.9469 10.5305 18.4485 10.144 20.144 10.144V8.144ZM14.624 9.536L13.6758 7.77506C11.6752 8.85233 10.0834 10.4143 8.91363 12.4142L10.64 13.424L12.3664 14.4338C13.1806 13.0417 14.2448 12.0117 15.5722 11.2969L14.624 9.536ZM10.64 13.424L8.89949 12.4388C7.73854 14.4898 7.2 16.8593 7.2 19.472H9.2H11.2C11.2 17.4127 11.6215 15.7502 12.3805 14.4092L10.64 13.424ZM9.2 19.472H7.2C7.2 22.0602 7.74145 24.4306 8.88421 26.5257L10.64 25.568L12.3958 24.6103C11.6186 23.1854 11.2 21.4918 11.2 19.472H9.2ZM10.64 25.568L8.89169 26.5393C10.017 28.5648 11.5606 30.1749 13.514 31.3239L14.528 29.6L15.542 27.8761C14.2314 27.1051 13.183 26.0272 12.3883 24.5967L10.64 25.568ZM14.528 29.6L13.5286 31.3324C15.5214 32.4821 17.7431 33.04 20.144 33.04V31.04V29.04C18.3849 29.04 16.8626 28.6379 15.5274 27.8676L14.528 29.6ZM20.144 31.04V33.04C21.6879 33.04 23.1331 32.8428 24.4556 32.4149L23.84 30.512L23.2244 28.6091C22.3709 28.8852 21.3521 29.04 20.144 29.04V31.04ZM23.84 30.512L24.5056 32.398C25.8019 31.9405 26.9587 31.2927 27.941 30.4332L26.624 28.928L25.307 27.4229C24.7533 27.9073 24.0541 28.3155 23.1744 28.626L23.84 30.512ZM26.624 28.928L27.9104 30.4594C28.8653 29.6573 29.6755 28.7331 30.3325 27.6896L28.64 26.624L26.9475 25.5584C26.5165 26.2429 25.9827 26.8547 25.3376 27.3966L26.624 28.928ZM28.64 26.624L30.3325 27.6896C30.9831 26.6563 31.4755 25.5347 31.8133 24.3335L29.888 23.792L27.9627 23.2505C27.7245 24.0973 27.3849 24.8637 26.9475 25.5584L28.64 26.624ZM29.888 23.792V21.792H20.24V23.792V25.792H29.888V23.792Z" fill="white" mask="url(#path-1-outside-1_0_1)"/>
</svg>
