<svg width="37" height="38" viewBox="0 0 37 38" fill="none" xmlns="http://www.w3.org/2000/svg">
<mask id="path-1-outside-1_0_1" maskUnits="userSpaceOnUse" x="-0.727997" y="-0.727997" width="38" height="38" fill="black">
<rect fill="white" x="-0.727997" y="-0.727997" width="38" height="38"/>
<path d="M19.24 22.792V17.32H35.8C35.896 19.88 35.592 22.296 34.888 24.568C34.216 26.84 33.144 28.856 31.672 30.616C30.232 32.344 28.44 33.704 26.296 34.696C24.152 35.688 21.704 36.184 18.952 36.184C16.36 36.184 13.96 35.752 11.752 34.888C9.576 34.024 7.672 32.808 6.04 31.24C4.44 29.672 3.192 27.8 2.296 25.624C1.432 23.448 1 21.064 1 18.472C1 15.88 1.448 13.512 2.344 11.368C3.272 9.192 4.552 7.336 6.184 5.8C7.816 4.264 9.736 3.08 11.944 2.248C14.152 1.416 16.552 1 19.144 1C21.448 1 23.512 1.32 25.336 1.96C27.192 2.6 28.824 3.496 30.232 4.648C31.672 5.768 32.904 7.112 33.928 8.68L28.072 12.088C27.24 10.616 26.072 9.432 24.568 8.536C23.096 7.608 21.288 7.144 19.144 7.144C17.128 7.144 15.288 7.608 13.624 8.536C11.96 9.432 10.632 10.728 9.64 12.424C8.68 14.12 8.2 16.136 8.2 18.472C8.2 20.776 8.68 22.808 9.64 24.568C10.6 26.296 11.896 27.64 13.528 28.6C15.192 29.56 17.064 30.04 19.144 30.04C20.52 30.04 21.752 29.864 22.84 29.512C23.928 29.128 24.856 28.6 25.624 27.928C26.424 27.256 27.096 26.488 27.64 25.624C28.184 24.76 28.6 23.816 28.888 22.792H19.24Z"/>
</mask>
<path d="M19.24 22.792V17.32H35.8C35.896 19.88 35.592 22.296 34.888 24.568C34.216 26.84 33.144 28.856 31.672 30.616C30.232 32.344 28.44 33.704 26.296 34.696C24.152 35.688 21.704 36.184 18.952 36.184C16.36 36.184 13.96 35.752 11.752 34.888C9.576 34.024 7.672 32.808 6.04 31.24C4.44 29.672 3.192 27.8 2.296 25.624C1.432 23.448 1 21.064 1 18.472C1 15.88 1.448 13.512 2.344 11.368C3.272 9.192 4.552 7.336 6.184 5.8C7.816 4.264 9.736 3.08 11.944 2.248C14.152 1.416 16.552 1 19.144 1C21.448 1 23.512 1.32 25.336 1.96C27.192 2.6 28.824 3.496 30.232 4.648C31.672 5.768 32.904 7.112 33.928 8.68L28.072 12.088C27.24 10.616 26.072 9.432 24.568 8.536C23.096 7.608 21.288 7.144 19.144 7.144C17.128 7.144 15.288 7.608 13.624 8.536C11.96 9.432 10.632 10.728 9.64 12.424C8.68 14.12 8.2 16.136 8.2 18.472C8.2 20.776 8.68 22.808 9.64 24.568C10.6 26.296 11.896 27.64 13.528 28.6C15.192 29.56 17.064 30.04 19.144 30.04C20.52 30.04 21.752 29.864 22.84 29.512C23.928 29.128 24.856 28.6 25.624 27.928C26.424 27.256 27.096 26.488 27.64 25.624C28.184 24.76 28.6 23.816 28.888 22.792H19.24Z" fill="#8413AA"/>
<path d="M19.24 22.792H18.74V23.292H19.24V22.792ZM19.24 17.32V16.82H18.74V17.32H19.24ZM35.8 17.32L36.2997 17.3013L36.2816 16.82H35.8V17.32ZM34.888 24.568L34.4104 24.42L34.4085 24.4262L34.888 24.568ZM31.672 30.616L31.2885 30.2952L31.2879 30.2959L31.672 30.616ZM26.296 34.696L26.086 34.2422V34.2422L26.296 34.696ZM11.752 34.888L11.5675 35.3527L11.5698 35.3536L11.752 34.888ZM6.04 31.24L5.69002 31.5971L5.69359 31.6006L6.04 31.24ZM2.296 25.624L1.83126 25.8085L1.83366 25.8144L2.296 25.624ZM2.344 11.368L1.88407 11.1719L1.88267 11.1752L2.344 11.368ZM6.184 5.8L6.52669 6.1641H6.52669L6.184 5.8ZM11.944 2.248L12.1203 2.71589V2.71589L11.944 2.248ZM25.336 1.96L25.1705 2.43181L25.173 2.43269L25.336 1.96ZM30.232 4.648L29.9153 5.0351L29.925 5.04268L30.232 4.648ZM33.928 8.68L34.1795 9.11215L34.6345 8.84736L34.3466 8.40661L33.928 8.68ZM28.072 12.088L27.6367 12.334L27.8859 12.7748L28.3235 12.5201L28.072 12.088ZM24.568 8.536L24.3013 8.9591L24.3121 8.96555L24.568 8.536ZM13.624 8.536L13.8611 8.97628L13.8675 8.97268L13.624 8.536ZM9.64 12.424L9.20837 12.1715L9.20487 12.1777L9.64 12.424ZM9.64 24.568L9.20104 24.8074L9.20292 24.8108L9.64 24.568ZM13.528 28.6L13.2745 29.031L13.2781 29.0331L13.528 28.6ZM22.84 29.512L22.994 29.9879L23.0064 29.9835L22.84 29.512ZM25.624 27.928L25.3023 27.5451L25.2948 27.5517L25.624 27.928ZM27.64 25.624L28.0631 25.8904V25.8904L27.64 25.624ZM28.888 22.792L29.3693 22.9274L29.548 22.292H28.888V22.792ZM19.24 22.792H19.74V21.424H19.24H18.74V22.792H19.24ZM19.24 18.688H19.74V17.32H19.24H18.74V18.688H19.24ZM19.24 17.32V17.82H20.275V17.32V16.82H19.24V17.32ZM22.345 17.32V17.82H24.415V17.32V16.82H22.345V17.32ZM26.485 17.32V17.82H28.555V17.32V16.82H26.485V17.32ZM30.625 17.32V17.82H32.695V17.32V16.82H30.625V17.32ZM34.765 17.32V17.82H35.8V17.32V16.82H34.765V17.32ZM35.8 17.32L35.3004 17.3387C35.3117 17.6404 35.3173 17.94 35.3173 18.2373L35.8173 18.2374L36.3173 18.2374C36.3173 17.9274 36.3114 17.6153 36.2997 17.3013L35.8 17.32ZM35.7449 20.0706L35.2465 20.0307C35.1982 20.6328 35.1255 21.2256 35.0281 21.8092L35.5213 21.8914L36.0145 21.9737C36.1166 21.3615 36.1928 20.7404 36.2433 20.1105L35.7449 20.0706ZM35.1394 23.6857L34.6555 23.5597C34.5803 23.8488 34.4985 24.1356 34.4104 24.42L34.888 24.568L35.3656 24.716C35.4583 24.417 35.5442 24.1155 35.6233 23.8117L35.1394 23.6857ZM34.888 24.568L34.4085 24.4262C34.3287 24.6961 34.2431 24.9622 34.1518 25.2244L34.6239 25.3889L35.0961 25.5533C35.1927 25.2759 35.2832 24.9948 35.3675 24.7098L34.888 24.568ZM33.9769 26.9868L33.5235 26.7759C33.2871 27.2843 33.0263 27.7767 32.741 28.2533L33.17 28.5101L33.599 28.7669C33.9023 28.2603 34.1794 27.7372 34.4303 27.1976L33.9769 26.9868ZM32.2079 29.9405L31.8082 29.6401C31.6411 29.8623 31.4679 30.0807 31.2885 30.2952L31.672 30.616L32.0555 30.9368C32.246 30.7091 32.43 30.4771 32.6075 30.241L32.2079 29.9405ZM31.672 30.616L31.2879 30.2959C31.1119 30.507 30.9306 30.7124 30.7439 30.9121L31.1091 31.2536L31.4743 31.5951C31.6741 31.3815 31.868 31.1618 32.0561 30.9361L31.672 30.616ZM29.8779 32.4265L29.5545 32.0452C29.139 32.3976 28.7017 32.7277 28.2424 33.0355L28.5207 33.4508L28.799 33.8662C29.2892 33.5378 29.7567 33.185 30.2014 32.8078L29.8779 32.4265ZM27.0589 34.3197L26.8264 33.877C26.5848 34.0039 26.338 34.1256 26.086 34.2422L26.296 34.696L26.506 35.1498C26.7729 35.0263 27.0347 34.8972 27.2913 34.7624L27.0589 34.3197ZM26.296 34.696L26.086 34.2422C25.8115 34.3692 25.5318 34.4879 25.2466 34.5982L25.427 35.0645L25.6074 35.5308C25.9123 35.4129 26.2118 35.2859 26.506 35.1498L26.296 34.696ZM23.6285 35.6355L23.506 35.1507C22.926 35.2973 22.3263 35.4139 21.7069 35.5002L21.7759 35.9954L21.8449 36.4906C22.4989 36.3995 23.1343 36.2761 23.751 36.1202L23.6285 35.6355ZM19.896 36.164L19.8746 35.6645C19.5713 35.6775 19.2638 35.684 18.952 35.684V36.184V36.684C19.2777 36.684 19.5995 36.6772 19.9174 36.6636L19.896 36.164ZM18.952 36.184V35.684C18.6493 35.684 18.3495 35.678 18.0526 35.666L18.0323 36.1656L18.0121 36.6651C18.3228 36.6777 18.6361 36.684 18.952 36.684V36.184ZM16.1996 36.0125L16.2631 35.5166C15.6625 35.4396 15.0743 35.3361 14.4984 35.2062L14.3884 35.694L14.2784 36.1818C14.8857 36.3187 15.505 36.4276 16.136 36.5085L16.1996 36.0125ZM12.6168 35.201L12.7749 34.7267C12.4915 34.6322 12.2113 34.5308 11.9342 34.4224L11.752 34.888L11.5698 35.3536C11.8629 35.4683 12.1592 35.5756 12.4587 35.6754L12.6168 35.201ZM11.752 34.888L11.9365 34.4233C11.6777 34.3205 11.4229 34.2127 11.1722 34.0998L10.9669 34.5557L10.7616 35.0116C11.0262 35.1307 11.2948 35.2444 11.5675 35.3527L11.752 34.888ZM9.44717 33.7837L9.69462 33.3493C9.21225 33.0745 8.74679 32.7783 8.29819 32.4606L8.0092 32.8686L7.72022 33.2766C8.19586 33.6135 8.68906 33.9274 9.19972 34.2182L9.44717 33.7837ZM6.66912 31.8153L6.99731 31.4381C6.78953 31.2573 6.5859 31.0711 6.38642 30.8795L6.04 31.24L5.69359 31.6006C5.9049 31.8036 6.12069 32.0009 6.34094 32.1925L6.66912 31.8153ZM6.04 31.24L6.38997 30.8829C6.1936 30.6905 6.00273 30.4933 5.81735 30.2915L5.44911 30.6297L5.08086 30.9679C5.27812 31.1827 5.48119 31.3924 5.69004 31.5971L6.04 31.24ZM4.36789 29.32L4.7697 29.0224C4.4449 28.5838 4.1415 28.1264 3.85952 27.6499L3.42923 27.9045L2.99894 28.1592C3.29818 28.6648 3.62056 29.151 3.96607 29.6175L4.36789 29.32ZM2.63737 26.4019L3.09044 26.1905C2.97478 25.9427 2.86407 25.6904 2.75834 25.4336L2.296 25.624L1.83366 25.8144C1.94517 26.0852 2.06204 26.3515 2.1843 26.6134L2.63737 26.4019ZM2.296 25.624L2.76071 25.4395C2.6518 25.1652 2.54994 24.8875 2.45513 24.6062L1.98133 24.766L1.50753 24.9257C1.60794 25.2235 1.71586 25.5178 1.8313 25.8085L2.296 25.624ZM1.48756 23.0067L1.97518 22.8961C1.84574 22.3253 1.74265 21.7411 1.66603 21.1435L1.17009 21.2071L0.674148 21.2707C0.754707 21.899 0.86327 22.5146 0.999943 23.1173L1.48756 23.0067ZM1.01825 19.3859L1.51784 19.3658C1.50596 19.0709 1.5 18.773 1.5 18.472H1H0.500003C0.500003 18.7862 0.506216 19.0975 0.518656 19.406L1.01825 19.3859ZM1 18.472H1.5C1.5 18.1725 1.50612 17.8762 1.51834 17.5832L1.01877 17.5624L0.519209 17.5416C0.5064 17.8487 0.500003 18.1589 0.500003 18.472H1ZM1.17544 15.7503L1.67106 15.8163C1.75023 15.222 1.85682 14.6422 1.99071 14.0767L1.50416 13.9615L1.01761 13.8463C0.875823 14.4451 0.763268 15.0578 0.67982 15.6843L1.17544 15.7503ZM2.01685 12.2167L2.4882 12.3835C2.58658 12.1055 2.69229 11.8313 2.80534 11.5608L2.344 11.368L1.88267 11.1752C1.76242 11.4629 1.65003 11.7545 1.54549 12.0499L2.01685 12.2167ZM2.344 11.368L2.80393 11.5641C2.91314 11.3081 3.02729 11.0567 3.14637 10.81L2.6961 10.5926L2.24582 10.3753C2.11988 10.6361 1.9993 10.9017 1.88408 11.1719L2.344 11.368ZM3.51041 9.09753L3.93696 9.35839C4.22657 8.88485 4.53756 8.4313 4.86993 7.99764L4.47308 7.69349L4.07623 7.38933C3.72225 7.85119 3.39147 8.33367 3.08385 8.83666L3.51041 9.09753ZM5.57987 6.40005L5.94166 6.74517C6.13116 6.54652 6.32616 6.35283 6.52669 6.1641L6.184 5.8L5.84132 5.4359C5.62776 5.6369 5.42001 5.84325 5.21808 6.05493L5.57987 6.40005ZM6.184 5.8L6.52669 6.1641C6.72742 5.97518 6.93261 5.79177 7.14228 5.61387L6.81879 5.23262L6.4953 4.85136C6.27251 5.0404 6.05452 5.23524 5.84132 5.4359L6.184 5.8ZM8.1718 4.1997L8.45438 4.61219C8.90588 4.30288 9.3753 4.01498 9.86274 3.74852L9.6229 3.3098L9.38307 2.87107C8.86668 3.15336 8.36869 3.45873 7.88921 3.78721L8.1718 4.1997ZM11.1541 2.56592L11.3512 3.02542C11.6033 2.91727 11.8597 2.81409 12.1203 2.71589L11.944 2.248L11.7677 1.78012C11.4933 1.88352 11.223 1.99229 10.957 2.10642L11.1541 2.56592ZM11.944 2.248L12.1203 2.71589C12.3983 2.61113 12.6795 2.51313 12.9639 2.4219L12.8112 1.9458L12.6584 1.4697C12.3583 1.56599 12.0614 1.66946 11.7677 1.78012L11.944 2.248ZM14.5848 1.47091L14.6908 1.95954C15.267 1.83455 15.8555 1.73499 16.4564 1.66093L16.3953 1.16469L16.3341 0.668442C15.7038 0.746113 15.0854 0.850693 14.4788 0.982269L14.5848 1.47091ZM18.2257 1.01772L18.2452 1.51734C18.542 1.50578 18.8416 1.5 19.144 1.5V1V0.5C18.8288 0.5 18.5162 0.506027 18.2063 0.518093L18.2257 1.01772ZM19.144 1V1.5C19.4042 1.5 19.661 1.50417 19.9146 1.51248L19.931 1.01275L19.9474 0.51302C19.6826 0.504337 19.4149 0.5 19.144 0.5V1ZM21.5009 1.12033L21.4481 1.61754C21.9687 1.67281 22.4737 1.74752 22.9632 1.8415L23.0575 1.35047L23.1517 0.859436C22.6335 0.759941 22.1008 0.681221 21.5537 0.623127L21.5009 1.12033ZM24.587 1.71912L24.4463 2.19891C24.6921 2.27102 24.9335 2.34865 25.1705 2.4318L25.336 1.96L25.5015 1.4882C25.2479 1.39919 24.9899 1.31624 24.7277 1.23934L24.587 1.71912ZM25.336 1.96L25.173 2.43269C25.6098 2.5833 26.0332 2.74828 26.4434 2.92758L26.6437 2.46943L26.8439 2.01129C26.4086 1.821 25.9602 1.64637 25.499 1.48732L25.336 1.96ZM29.1048 3.81237L28.8264 4.22771C29.2038 4.48065 29.5668 4.74974 29.9154 5.03498L30.232 4.648L30.5486 4.26102C30.1752 3.95552 29.7867 3.66752 29.3832 3.39704L29.1048 3.81237ZM30.232 4.648L29.925 5.04268C30.2763 5.31591 30.6148 5.60283 30.9404 5.90346L31.2796 5.53607L31.6187 5.16869C31.2723 4.8489 30.9124 4.54377 30.539 4.25333L30.232 4.648ZM33.1323 7.56058L32.7367 7.86637C33.0064 8.21522 33.2639 8.57754 33.5094 8.9534L33.928 8.68L34.3466 8.40661C34.0869 8.00892 33.814 7.62497 33.5279 7.2548L33.1323 7.56058ZM33.928 8.68L33.6765 8.24786L32.9445 8.67386L33.196 9.106L33.4475 9.53815L34.1795 9.11215L33.928 8.68ZM31.732 9.958L31.4805 9.52586L30.0165 10.3779L30.268 10.81L30.5195 11.2421L31.9835 10.3901L31.732 9.958ZM28.804 11.662L28.5525 11.2299L27.8205 11.6559L28.072 12.088L28.3235 12.5201L29.0555 12.0941L28.804 11.662ZM28.072 12.088L28.5073 11.842C28.2876 11.4534 28.0454 11.0833 27.7805 10.732L27.3813 11.0331L26.9821 11.3341C27.2201 11.6497 27.4383 11.983 27.6367 12.334L28.072 12.088ZM25.611 9.24493L25.917 8.84952C25.5729 8.5832 25.2085 8.33555 24.8239 8.10645L24.568 8.536L24.3121 8.96555C24.6631 9.17463 24.9939 9.3996 25.305 9.64034L25.611 9.24493ZM24.568 8.536L24.8347 8.11304C24.4138 7.84774 23.968 7.61864 23.4977 7.42555L23.3078 7.88809L23.1179 8.35063C23.5363 8.52239 23.9306 8.72524 24.3014 8.95896L24.568 8.536ZM20.5605 7.21662L20.6135 6.71943C20.14 6.66902 19.6502 6.644 19.144 6.644V7.144V7.644C19.6173 7.644 20.0717 7.6674 20.5076 7.71381L20.5605 7.21662ZM19.144 7.144V6.644C18.6364 6.644 18.1383 6.67235 17.6501 6.72927L17.708 7.22591L17.7659 7.72254C18.2143 7.67026 18.6736 7.644 19.144 7.644V7.144ZM14.9233 7.91976L14.7395 7.45475C14.2744 7.63855 13.8213 7.85345 13.3805 8.09932L13.624 8.536L13.8675 8.97268C14.2702 8.7481 14.6834 8.55218 15.107 8.38477L14.9233 7.91976ZM13.624 8.536L13.387 8.09577C12.9486 8.33182 12.5318 8.59472 12.1369 8.88454L12.4327 9.28765L12.7285 9.69075C13.0853 9.4289 13.4627 9.19071 13.8611 8.97624L13.624 8.536ZM10.4257 11.2546L10.0296 10.9495C9.73429 11.3329 9.46062 11.7404 9.20841 12.1716L9.64 12.424L10.0716 12.6764C10.3032 12.2804 10.5534 11.9083 10.8218 11.5596L10.4257 11.2546ZM9.64 12.424L9.20487 12.1777C9.06984 12.4163 8.94393 12.6607 8.82712 12.911L9.28021 13.1224L9.7333 13.3339C9.83915 13.1071 9.95309 12.8859 10.0751 12.6703L9.64 12.424ZM8.72477 14.5913L8.2455 14.4488C8.09323 14.9611 7.97313 15.493 7.88484 16.0443L8.37855 16.1234L8.87226 16.2024C8.95403 15.6918 9.06475 15.2024 9.20405 14.7338L8.72477 14.5913ZM8.21869 17.6862L7.71927 17.6621C7.70641 17.9281 7.7 18.1981 7.7 18.472H8.2H8.7C8.7 18.2137 8.70605 17.9598 8.71811 17.7103L8.21869 17.6862ZM8.2 18.472H7.7C7.7 18.7474 7.70666 19.0194 7.72001 19.288L8.2194 19.2631L8.71878 19.2383C8.70627 18.9868 8.7 18.7313 8.7 18.472H8.2ZM8.38366 20.8364L7.89013 20.9166C7.97974 21.468 8.10116 22.0028 8.25463 22.5207L8.73403 22.3786L9.21342 22.2365C9.07243 21.7608 8.96027 21.2674 8.87719 20.7562L8.38366 20.8364ZM9.2865 23.8603L8.83144 24.0674C8.94595 24.3189 9.06916 24.5656 9.20106 24.8074L9.64 24.568L10.079 24.3286C9.95861 24.1079 9.84614 23.8828 9.74155 23.6531L9.2865 23.8603ZM9.64 24.568L9.20292 24.8108C9.44639 25.2491 9.71119 25.6646 9.99746 26.0572L10.4014 25.7625L10.8054 25.4679C10.5442 25.1097 10.3014 24.7289 10.0771 24.3252L9.64 24.568ZM12.3584 27.8012L12.0488 28.1938C12.4354 28.4987 12.8441 28.7778 13.2745 29.031L13.528 28.6L13.7815 28.169C13.3895 27.9385 13.0185 27.685 12.668 27.4086L12.3584 27.8012ZM13.528 28.6L13.2781 29.0331C13.7236 29.2901 14.1836 29.5144 14.658 29.7059L14.8451 29.2422L15.0322 28.7785C14.6013 28.6046 14.1833 28.4008 13.7779 28.1669L13.528 28.6ZM17.6806 29.9569L17.6227 30.4535C18.1185 30.5113 18.6257 30.54 19.144 30.54V30.04V29.54C18.6627 29.54 18.1942 29.5133 17.7384 29.4602L17.6806 29.9569ZM19.144 30.04V30.54C19.4739 30.54 19.7966 30.5302 20.1119 30.5105L20.0807 30.0114L20.0495 29.5124C19.7559 29.5308 19.4541 29.54 19.144 29.54V30.04ZM21.9358 29.7567L22.0438 30.2449C22.3703 30.1727 22.6871 30.087 22.9939 29.9877L22.84 29.512L22.6861 29.0363C22.4107 29.1254 22.1246 29.2029 21.8277 29.2686L21.9358 29.7567ZM22.84 29.512L23.0064 29.9835C23.2771 29.888 23.5391 29.7836 23.7924 29.6704L23.5883 29.214L23.3842 28.7575C23.1567 28.8592 22.9198 28.9536 22.6736 29.0405L22.84 29.512ZM24.9902 28.4246L25.2772 28.834C25.5137 28.6682 25.7391 28.4916 25.9533 28.3043L25.624 27.928L25.2948 27.5517C25.1081 27.715 24.9109 27.8695 24.7032 28.0152L24.9902 28.4246ZM25.624 27.928L25.9456 28.3109C26.1527 28.1369 26.3518 27.9566 26.5429 27.7701L26.1935 27.4123L25.8442 27.0546C25.6712 27.2235 25.4907 27.387 25.3024 27.5452L25.624 27.928ZM27.2054 26.2575L27.6062 26.5564C27.767 26.3408 27.9194 26.1187 28.0631 25.8904L27.64 25.624L27.2169 25.3576C27.0871 25.5638 26.9497 25.7641 26.8046 25.9586L27.2054 26.2575ZM27.64 25.624L28.0631 25.8904C28.2076 25.661 28.3434 25.4263 28.4705 25.1862L28.0287 24.9521L27.5869 24.7181C27.4713 24.9362 27.348 25.1493 27.2169 25.3576L27.64 25.624ZM28.6527 23.5317L29.1237 23.6996C29.2137 23.4469 29.2956 23.1895 29.3693 22.9274L28.888 22.792L28.4067 22.6566C28.339 22.8973 28.264 23.1331 28.1817 23.3639L28.6527 23.5317ZM28.888 22.792V22.292H27.682V22.792V23.292H28.888V22.792ZM25.27 22.792V22.292H22.858V22.792V23.292H25.27V22.792ZM20.446 22.792V22.292H19.24V22.792V23.292H20.446V22.792ZM19.24 22.792H18.24V23.792H19.24V22.792ZM19.24 17.32V16.32H18.24V17.32H19.24ZM35.8 17.32L36.7993 17.2825L36.7632 16.32H35.8V17.32ZM34.888 24.568L33.9327 24.272L33.9291 24.2844L34.888 24.568ZM31.672 30.616L30.9049 29.9744L30.9038 29.9758L31.672 30.616ZM26.296 34.696L25.8761 33.7884V33.7884L26.296 34.696ZM11.752 34.888L11.383 35.8174L11.3876 35.8192L11.752 34.888ZM6.04 31.24L5.34004 31.9543L5.34718 31.9611L6.04 31.24ZM2.296 25.624L1.36651 25.9931L1.37133 26.0048L2.296 25.624ZM2.344 11.368L1.42414 10.9757L1.42133 10.9824L2.344 11.368ZM6.184 5.8L6.86937 6.5282H6.86937L6.184 5.8ZM11.944 2.248L12.2966 3.18377H12.2966L11.944 2.248ZM25.336 1.96L25.0049 2.90362L25.01 2.90538L25.336 1.96ZM30.232 4.648L29.5988 5.42196L29.6083 5.42978L29.6181 5.43736L30.232 4.648ZM33.928 8.68L34.431 9.54429L35.341 9.01473L34.7653 8.13321L33.928 8.68ZM28.072 12.088L27.2014 12.5801L27.6997 13.4617L28.575 12.9523L28.072 12.088ZM24.568 8.536L24.0347 9.38193L24.0454 9.38865L24.0562 9.3951L24.568 8.536ZM13.624 8.536L14.0981 9.41647L14.1046 9.41297L14.1111 9.40936L13.624 8.536ZM9.64 12.424L8.77682 11.9191L8.77324 11.9252L8.76975 11.9314L9.64 12.424ZM9.64 24.568L8.76208 25.0469L8.76585 25.0536L9.64 24.568ZM13.528 28.6L13.021 29.462L13.0283 29.4662L13.528 28.6ZM22.84 29.512L23.1478 30.4634L23.1604 30.4594L23.1728 30.455L22.84 29.512ZM25.624 27.928L24.9808 27.1623L24.9731 27.1688L24.9655 27.1754L25.624 27.928ZM27.64 25.624L28.4862 26.1568V26.1568L27.64 25.624ZM28.888 22.792L29.8507 23.0627L30.2081 21.792H28.888V22.792ZM19.24 22.792H20.24V21.424H19.24H18.24V22.792H19.24ZM19.24 18.688H20.24V17.32H19.24H18.24V18.688H19.24ZM19.24 17.32V18.32H20.275V17.32V16.32H19.24V17.32ZM22.345 17.32V18.32H24.415V17.32V16.32H22.345V17.32ZM26.485 17.32V18.32H28.555V17.32V16.32H26.485V17.32ZM30.625 17.32V18.32H32.695V17.32V16.32H30.625V17.32ZM34.765 17.32V18.32H35.8V17.32V16.32H34.765V17.32ZM35.8 17.32L34.8007 17.3575C34.8118 17.653 34.8173 17.9463 34.8173 18.2373L35.8173 18.2374L36.8173 18.2375C36.8173 17.9211 36.8113 17.6027 36.7993 17.2825L35.8 17.32ZM35.7449 20.0706L34.7481 19.9908C34.701 20.579 34.6299 21.1577 34.5349 21.7269L35.5213 21.8914L36.5077 22.0559C36.6122 21.4294 36.6901 20.7942 36.7417 20.1504L35.7449 20.0706ZM35.1394 23.6857L34.1717 23.4337C34.0983 23.7154 34.0187 23.9949 33.9328 24.272L34.888 24.568L35.8432 24.864C35.9381 24.5576 36.0261 24.2489 36.1071 23.9377L35.1394 23.6857ZM34.888 24.568L33.9291 24.2844C33.8515 24.5468 33.7683 24.8053 33.6796 25.0599L34.6239 25.3889L35.5683 25.7178C35.6676 25.4328 35.7604 25.1441 35.8469 24.8516L34.888 24.568ZM33.9769 26.9868L33.0701 26.5651C32.841 27.0579 32.5883 27.5349 32.312 27.9964L33.17 28.5101L34.028 29.0238C34.3403 28.5021 34.6255 27.9636 34.8837 27.4084L33.9769 26.9868ZM32.2079 29.9405L31.4086 29.3396C31.2467 29.5549 31.0788 29.7665 30.9049 29.9744L31.672 30.616L32.4391 31.2576C32.6351 31.0232 32.8244 30.7845 33.0072 30.5414L32.2079 29.9405ZM31.672 30.616L30.9038 29.9758C30.7339 30.1797 30.5589 30.3779 30.3787 30.5706L31.1091 31.2536L31.8395 31.9367C32.0458 31.716 32.2461 31.4892 32.4402 31.2562L31.672 30.616ZM29.8779 32.4265L29.2311 31.6639C28.8301 32.004 28.4079 32.3227 27.964 32.6201L28.5207 33.4508L29.0773 34.2816C29.583 33.9428 30.0656 33.5786 30.5248 33.1891L29.8779 32.4265ZM27.0589 34.3197L26.594 33.4343C26.3599 33.5573 26.1206 33.6753 25.8761 33.7884L26.296 34.696L26.7159 35.6036C26.9903 35.4766 27.2596 35.3438 27.5238 35.2051L27.0589 34.3197ZM26.296 34.696L25.8761 33.7884C25.6114 33.9109 25.3415 34.0254 25.0663 34.1318L25.427 35.0645L25.7878 35.9972C26.1026 35.8754 26.412 35.7442 26.7159 35.6036L26.296 34.696ZM23.6285 35.6355L23.3834 34.666C22.8218 34.8079 22.2401 34.9211 21.6379 35.0049L21.7759 35.9954L21.9139 36.9858C22.5851 36.8923 23.2385 36.7655 23.8736 36.605L23.6285 35.6355ZM19.896 36.164L19.8532 35.165C19.5572 35.1776 19.2568 35.184 18.952 35.184V36.184V37.184C19.2847 37.184 19.6136 37.1771 19.9388 37.1631L19.896 36.164ZM18.952 36.184V35.184C18.656 35.184 18.3629 35.1781 18.0728 35.1664L18.0323 36.1656L17.9919 37.1647C18.3094 37.1776 18.6295 37.184 18.952 37.184V36.184ZM16.1996 36.0125L16.3267 35.0206C15.7413 34.9456 15.1686 34.8448 14.6084 34.7185L14.3884 35.694L14.1684 36.6695C14.7914 36.81 15.4262 36.9216 16.0725 37.0044L16.1996 36.0125ZM12.6168 35.201L12.933 34.2524C12.6577 34.1606 12.3855 34.0621 12.1164 33.9568L11.752 34.888L11.3876 35.8192C11.6886 35.937 11.993 36.0472 12.3006 36.1497L12.6168 35.201ZM11.752 34.888L12.121 33.9586C11.8691 33.8586 11.6213 33.7536 11.3775 33.6439L10.9669 34.5557L10.5563 35.4675C10.8278 35.5898 11.1034 35.7064 11.383 35.8174L11.752 34.888ZM9.44717 33.7837L9.94208 32.9148C9.47384 32.6481 9.02226 32.3607 8.58718 32.0525L8.0092 32.8686L7.43123 33.6846C7.9204 34.0311 8.42747 34.3538 8.95227 34.6527L9.44717 33.7837ZM6.66912 31.8153L7.32549 31.0609C7.12395 30.8855 6.9264 30.7049 6.73283 30.5189L6.04 31.24L5.34718 31.9611C5.5644 32.1698 5.78627 32.3727 6.01276 32.5698L6.66912 31.8153ZM6.04 31.24L6.73993 30.5258C6.5498 30.3395 6.36503 30.1486 6.1856 29.9533L5.44911 30.6297L4.71261 31.3061C4.91582 31.5274 5.12498 31.7434 5.34007 31.9542L6.04 31.24ZM4.36789 29.32L5.17151 28.7248C4.85707 28.3002 4.56316 27.8571 4.28981 27.3952L3.42923 27.9045L2.56865 28.4139C2.87653 28.9341 3.20839 29.4346 3.56426 29.9151L4.36789 29.32ZM2.63737 26.4019L3.54351 25.979C3.43114 25.7382 3.32353 25.493 3.22068 25.2433L2.296 25.624L1.37133 26.0048C1.48571 26.2826 1.60567 26.556 1.73123 26.8249L2.63737 26.4019ZM2.296 25.624L3.22542 25.255C3.11978 24.9889 3.02094 24.7194 2.92893 24.4465L1.98133 24.766L1.03374 25.0854C1.13694 25.3915 1.24789 25.6941 1.36659 25.993L2.296 25.624ZM1.48756 23.0067L2.4628 22.7855C2.33697 22.2307 2.23662 21.6622 2.16197 21.0799L1.17009 21.2071L0.178208 21.3343C0.260736 21.978 0.372036 22.6092 0.512324 23.2279L1.48756 23.0067ZM1.01825 19.3859L2.01744 19.3456C2.00582 19.0576 2 18.7664 2 18.472H1H3.27826e-06C3.27826e-06 18.7927 0.0063464 19.1108 0.0190623 19.4262L1.01825 19.3859ZM1 18.472H2C2 18.1793 2.00598 17.89 2.01791 17.6041L1.01877 17.5624L0.0196431 17.5207C0.00653857 17.835 3.27826e-06 18.1521 3.27826e-06 18.472H1ZM1.17544 15.7503L2.16669 15.8823C2.24372 15.3041 2.34733 14.7407 2.47725 14.1919L1.50416 13.9615L0.531066 13.7311C0.385322 14.3466 0.269784 14.9758 0.184198 15.6182L1.17544 15.7503ZM2.01685 12.2167L2.95956 12.5503C3.05485 12.2811 3.15723 12.0155 3.26667 11.7536L2.344 11.368L1.42133 10.9824C1.29749 11.2788 1.18176 11.579 1.07413 11.8831L2.01685 12.2167ZM2.344 11.368L3.26385 11.7603C3.37006 11.5112 3.481 11.267 3.59665 11.0274L2.6961 10.5926L1.79555 10.1579C1.66618 10.4259 1.54239 10.6985 1.42416 10.9757L2.344 11.368ZM3.51041 9.09753L4.36352 9.61926C4.64412 9.16044 4.94522 8.72136 5.26678 8.3018L4.47308 7.69349L3.67938 7.08517C3.3146 7.56113 2.97392 8.05808 2.6573 8.5758L3.51041 9.09753ZM5.57987 6.40005L6.30345 7.09029C6.48673 6.89815 6.67536 6.71079 6.86937 6.5282L6.184 5.8L5.49864 5.0718C5.27855 5.27894 5.06443 5.49161 4.85629 5.70981L5.57987 6.40005ZM6.184 5.8L6.86937 6.5282C7.06386 6.34515 7.26266 6.16746 7.46577 5.99512L6.81879 5.23262L6.17181 4.47011C5.94247 4.66471 5.71807 4.86528 5.49864 5.0718L6.184 5.8ZM8.1718 4.1997L8.73696 5.02468C9.17447 4.72495 9.62961 4.4458 10.1026 4.18725L9.6229 3.3098L9.14323 2.43235C8.61237 2.72255 8.1001 3.03666 7.60663 3.37472L8.1718 4.1997ZM11.1541 2.56592L11.5484 3.48492C11.7935 3.37976 12.0429 3.27938 12.2966 3.18377L11.944 2.248L11.5914 1.31223C11.3101 1.41824 11.0329 1.5298 10.7599 1.64692L11.1541 2.56592ZM11.944 2.248L12.2966 3.18377C12.5668 3.08196 12.8401 2.9867 13.1166 2.89799L12.8112 1.9458L12.5057 0.993595C12.1977 1.09242 11.8929 1.19863 11.5914 1.31223L11.944 2.248ZM14.5848 1.47091L14.7968 2.44818C15.3578 2.32648 15.9314 2.22942 16.5176 2.15718L16.3953 1.16469L16.273 0.172195C15.628 0.251678 14.9946 0.358761 14.3728 0.493629L14.5848 1.47091ZM18.2257 1.01772L18.2646 2.01696C18.5548 2.00566 18.8479 2 19.144 2V1V0C18.8224 0 18.5034 0.00614929 18.1868 0.0184746L18.2257 1.01772ZM19.144 1V2C19.3989 2 19.6502 2.00408 19.8982 2.01221L19.931 1.01275L19.9638 0.0132866C19.6934 0.00442123 19.4202 0 19.144 0V1ZM21.5009 1.12033L21.3953 2.11474C21.9026 2.16861 22.3938 2.2413 22.8689 2.33253L23.0575 1.35047L23.246 0.368408C22.7135 0.266155 22.1669 0.185425 21.6065 0.125923L21.5009 1.12033ZM24.587 1.71912L24.3055 2.6787C24.5432 2.7484 24.7763 2.82338 25.0049 2.9036L25.336 1.96L25.6671 1.0164C25.4051 0.924461 25.1388 0.838856 24.8684 0.759548L24.587 1.71912ZM25.336 1.96L25.01 2.90538C25.4345 3.05176 25.8455 3.21193 26.2432 3.38573L26.6437 2.46943L27.0442 1.55314C26.5963 1.35736 26.1355 1.1779 25.662 1.01463L25.336 1.96ZM29.1048 3.81237L28.548 4.64304C28.9123 4.88721 29.2625 5.14685 29.5988 5.42196L30.232 4.648L30.8652 3.87404C30.4795 3.55841 30.0782 3.26096 29.6616 2.9817L29.1048 3.81237ZM30.232 4.648L29.6181 5.43736C29.9583 5.70198 30.286 5.9798 30.6013 6.27084L31.2796 5.53607L31.9579 4.80131C31.6011 4.47193 31.2304 4.1577 30.8459 3.85865L30.232 4.648ZM33.1323 7.56058L32.3411 8.17216C32.6025 8.51035 32.8524 8.86185 33.0907 9.22679L33.928 8.68L34.7653 8.13321C34.4984 7.72462 34.2179 7.32984 33.9235 6.94901L33.1323 7.56058ZM33.928 8.68L33.425 7.81571L32.693 8.24171L33.196 9.106L33.699 9.97029L34.431 9.54429L33.928 8.68ZM31.732 9.958L31.229 9.09371L29.765 9.94571L30.268 10.81L30.771 11.6743L32.235 10.8223L31.732 9.958ZM28.804 11.662L28.301 10.7977L27.569 11.2237L28.072 12.088L28.575 12.9523L29.307 12.5263L28.804 11.662ZM28.072 12.088L28.9426 11.5959C28.7123 11.1886 28.4581 10.8001 28.1797 10.431L27.3813 11.0331L26.5828 11.6351C26.8074 11.933 27.0136 12.2478 27.2014 12.5801L28.072 12.088ZM25.611 9.24493L26.2231 8.45411C25.8624 8.175 25.4812 7.91601 25.0798 7.6769L24.568 8.536L24.0562 9.3951C24.3903 9.59417 24.7044 9.8078 24.999 10.0357L25.611 9.24493ZM24.568 8.536L25.1013 7.69007C24.6554 7.40899 24.1839 7.16676 23.6876 6.96301L23.3078 7.88809L22.928 8.81317C23.3204 8.97427 23.689 9.16398 24.0347 9.38193L24.568 8.536ZM20.5605 7.21662L20.6664 6.22224C20.1742 6.16983 19.6666 6.144 19.144 6.144V7.144V8.144C19.6008 8.144 20.0375 8.16658 20.4546 8.211L20.5605 7.21662ZM19.144 7.144V6.144C18.6177 6.144 18.1004 6.17339 17.5922 6.23263L17.708 7.22591L17.8238 8.21918C18.2523 8.16922 18.6923 8.144 19.144 8.144V7.144ZM14.9233 7.91976L14.5558 6.98973C14.0699 7.18174 13.5969 7.40614 13.1369 7.66264L13.624 8.536L14.1111 9.40936C14.4947 9.19542 14.8879 9.00899 15.2908 8.84979L14.9233 7.91976ZM13.624 8.536L13.1499 7.65553C12.6915 7.90237 12.255 8.17763 11.841 8.48143L12.4327 9.28765L13.0243 10.0939C13.3621 9.84599 13.7198 9.62016 14.0981 9.41647L13.624 8.536ZM10.4257 11.2546L9.63342 10.6444C9.32476 11.0452 9.03933 11.4703 8.77682 11.9191L9.64 12.424L10.5032 12.9289C10.7245 12.5505 10.9629 12.196 11.218 11.8647L10.4257 11.2546ZM9.64 12.424L8.76975 11.9314C8.62822 12.1814 8.49632 12.4375 8.37403 12.6996L9.28021 13.1224L10.1864 13.5453C10.2868 13.3303 10.3947 13.1207 10.5103 12.9166L9.64 12.424ZM8.72477 14.5913L7.76622 14.3064C7.60747 14.8404 7.48268 15.3936 7.39113 15.9652L8.37855 16.1234L9.36596 16.2815C9.44448 15.7913 9.55051 15.323 9.68332 14.8762L8.72477 14.5913ZM8.21869 17.6862L7.21985 17.6379C7.2066 17.9123 7.2 18.1903 7.2 18.472H8.2H9.2C9.2 18.2215 9.20587 17.9757 9.21752 17.7344L8.21869 17.6862ZM8.2 18.472H7.2C7.2 18.7555 7.20686 19.0358 7.22063 19.3128L8.2194 19.2631L9.21816 19.2135C9.20608 18.9704 9.2 18.7233 9.2 18.472H8.2ZM8.38366 20.8364L7.39661 20.9968C7.48948 21.5683 7.61552 22.1238 7.77524 22.6628L8.73403 22.3786L9.69281 22.0945C9.55807 21.6398 9.45053 21.1671 9.37071 20.676L8.38366 20.8364ZM9.2865 23.8603L8.37639 24.2746C8.49586 24.537 8.62444 24.7945 8.76211 25.0469L9.64 24.568L10.5179 24.0891C10.4033 23.8791 10.2962 23.6647 10.1966 23.4459L9.2865 23.8603ZM9.64 24.568L8.76585 25.0536C9.01891 25.5092 9.29469 25.9421 9.59347 26.3518L10.4014 25.7625L11.2094 25.1733C10.9607 24.8322 10.7288 24.4688 10.5142 24.0824L9.64 24.568ZM12.3584 27.8012L11.7392 28.5864C12.1439 28.9056 12.5713 29.1974 13.021 29.4619L13.528 28.6L14.035 27.7381C13.6623 27.5188 13.31 27.2781 12.9776 27.016L12.3584 27.8012ZM13.528 28.6L13.0283 29.4662C13.4938 29.7348 13.9747 29.9693 14.4708 30.1695L14.8451 29.2422L15.2194 28.3149C14.8102 28.1497 14.4131 27.9561 14.0277 27.7338L13.528 28.6ZM17.6806 29.9569L17.5649 30.9501C18.0807 31.0102 18.6072 31.04 19.144 31.04V30.04V29.04C18.6812 29.04 18.2321 29.0143 17.7963 28.9636L17.6806 29.9569ZM19.144 30.04V31.04C19.4838 31.04 19.8169 31.0299 20.1431 31.0095L20.0807 30.0114L20.0183 29.0134C19.7356 29.0311 19.4442 29.04 19.144 29.04V30.04ZM21.9358 29.7567L22.1518 30.7331C22.4932 30.6576 22.8253 30.5678 23.1478 30.4634L22.84 29.512L22.5322 28.5606C22.2725 28.6446 22.0018 28.7179 21.7197 28.7804L21.9358 29.7567ZM22.84 29.512L23.1728 30.455C23.4558 30.3551 23.7304 30.2458 23.9964 30.1269L23.5883 29.214L23.1802 28.301C22.9654 28.397 22.7412 28.4864 22.5072 28.569L22.84 29.512ZM24.9902 28.4246L25.5641 29.2435C25.8151 29.0676 26.0546 28.88 26.2825 28.6806L25.624 27.928L24.9655 27.1754C24.7926 27.3267 24.6096 27.4702 24.4162 27.6057L24.9902 28.4246ZM25.624 27.928L26.2672 28.6937C26.4837 28.5119 26.692 28.3232 26.8922 28.1278L26.1935 27.4123L25.4949 26.6969C25.331 26.8569 25.1596 27.0121 24.9808 27.1623L25.624 27.928ZM27.2054 26.2575L28.007 26.8554C28.1757 26.6291 28.3355 26.3962 28.4862 26.1568L27.64 25.624L26.7938 25.0912C26.671 25.2863 26.541 25.4757 26.4038 25.6597L27.2054 26.2575ZM27.64 25.624L28.4862 26.1568C28.6373 25.9168 28.7794 25.6713 28.9124 25.4202L28.0287 24.9521L27.145 24.484C27.0353 24.6911 26.9182 24.8935 26.7938 25.0912L27.64 25.624ZM28.6527 23.5317L29.5947 23.8674C29.6886 23.6039 29.7739 23.3356 29.8507 23.0627L28.888 22.792L27.9254 22.5213C27.8607 22.7512 27.7891 22.9761 27.7107 23.1961L28.6527 23.5317ZM28.888 22.792V21.792H27.682V22.792V23.792H28.888V22.792ZM25.27 22.792V21.792H22.858V22.792V23.792H25.27V22.792ZM20.446 22.792V21.792H19.24V22.792V23.792H20.446V22.792Z" fill="white" mask="url(#path-1-outside-1_0_1)"/>
</svg>
